<svg xmlns="http://www.w3.org/2000/svg"
shape-rendering="geometricPrecision"
width="4000" height="4000" viewBox="0 0 602 602">
  <metadata>null</metadata>

<path d="
M 27.91 418.088
C 27.947 417.83 27.984 417.572 28.021 417.314
C 35.98 417.628 44.036 417.298 52.008 417.286
C 59.855 417.275 67.755 417.591 75.595 417.234
C 75.607 419.691 75.426 422.162 75.459 424.636
C 75.475 425.811 75.797 427.29 75.411 428.41
C 63.524 427.85 51.534 429.203 39.66 428.543
C 39.567 433.444 39.681 438.351 39.569 443.255
C 40.232 443.599 41.245 443.377 42.004 443.367
C 44.172 443.338 46.341 443.361 48.509 443.364
C 56.01 443.374 63.512 443.431 71.01 443.267
C 70.522 446.82 70.94 450.711 71.076 454.28
C 70.409 454.616 69.258 454.424 68.506 454.439
C 66.342 454.482 64.173 454.442 62.008 454.446
C 54.671 454.459 47.23 454.073 39.907 454.502
C 39.137 456.018 39.729 459.277 39.713 461.001
C 39.678 465.001 39.68 469.001 39.683 473.001
C 39.685 474.968 39.407 477.28 39.795 479.2
C 36.863 479.156 33.926 479.201 30.993 479.209
C 30.095 479.212 28.621 479.61 27.818 479.263
C 28.208 464.202 27.874 449.069 27.902 433.999
C 27.912 428.721 27.628 423.356 27.91 418.088 Z"
opacity="1" fill="rgb(6,20,61)" fill-rule="evenodd" />
<path d="
M 82.963 446.614
C 83.264 441.038 84.912 435.234 87.954 430.522
C 96.722 416.936 115.933 411.916 130.395 419.111
C 137.416 422.604 142.932 428.626 145.827 435.914
C 147.595 440.364 148.127 445.203 147.857 449.966
C 147.313 459.593 142.584 468.59 134.75 474.272
C 121.779 483.678 101.374 482.399 90.714 470.014
C 88.25 467.15 86.231 463.924 84.923 460.371
C 83.31 455.992 82.711 451.264 82.963 446.614 Z
M 95.418 444.596
C 94.899 447.892 95.11 451.262 96.001 454.475
C 100.045 469.052 118.974 474.526 129.806 463.5
C 132.819 460.433 134.633 456.138 135.282 451.924
C 135.795 448.597 135.513 445.261 134.613 442.019
C 133.761 438.947 132.224 435.911 130.111 433.508
C 124.221 426.811 113.165 425.088 105.501 429.603
C 100.137 432.763 96.386 438.453 95.418 444.596 Z"
opacity="1" fill="rgb(6,19,62)" fill-rule="evenodd" />
<path d="
M 161.445 417.36
C 162.306 416.828 164.055 417.163 165.065 417.176
C 168.046 417.216 171.027 417.179 174.008 417.169
C 185.639 417.129 201.077 414.555 209.45 424.723
C 217.981 435.083 213.004 453.324 199.61 456.572
C 200.544 458.385 202.08 460.039 203.238 461.728
C 206.06 465.844 209.039 469.848 211.833 473.983
C 212.725 475.304 213.634 476.642 214.639 477.88
C 214.914 478.218 215.699 478.93 215.543 479.3
C 210.746 479.427 205.925 479.166 201.127 479.33
C 199.015 477.568 197.289 474.028 195.719 471.735
C 192.685 467.305 189.206 463.126 186.576 458.428
C 182.537 457.961 177.862 458.554 173.778 458.684
C 173.609 463.442 173.757 468.238 173.771 473.001
C 173.777 474.791 174.382 477.647 173.793 479.288
C 169.843 479.004 165.656 479.071 161.698 479.233
C 161.119 477.838 161.658 475.577 161.57 474.056
C 161.319 469.717 161.448 465.347 161.433 461
C 161.385 446.469 161.842 431.884 161.445 417.36 Z
M 173.858 428.376
C 173.265 429.817 173.657 431.979 173.684 433.527
C 173.744 436.851 173.741 440.175 173.75 443.5
C 173.753 444.486 173.295 447.262 173.902 447.927
C 181.055 447.149 190.274 449.876 196.76 446.023
C 202.696 442.496 202.332 433.038 196.339 429.808
C 193.622 428.344 190.465 428.415 187.467 428.352
C 182.951 428.259 178.371 428.201 173.858 428.376 Z"
opacity="1" fill="rgb(6,19,62)" fill-rule="evenodd" />
<path d="
M 186.421 142.104
C 186.937 139.345 187.59 136.676 188.912 134.173
C 192.221 127.908 197.892 123.481 204.947 122.235
C 209.032 121.513 213.382 121.902 217.511 121.918
C 223.51 121.941 229.508 121.926 235.507 121.936
C 281.5 122.015 327.51 121.942 373.51 121.908
C 383.804 121.9 394.098 121.901 404.392 121.885
C 412.589 121.873 420.228 121.465 426.974 126.908
C 435.291 133.618 435.422 143.761 435.416 153.508
C 435.41 162.172 435.376 170.836 435.383 179.5
C 435.407 212.666 435.371 245.833 435.371 278.999
C 435.371 290 435.442 301.002 435.438 312.003
C 435.435 317.989 435.788 324.052 435.226 330.018
C 434.237 340.511 425.775 349.423 415.206 350.386
C 411.727 350.703 408.243 350.395 404.757 350.42
C 397.004 350.476 389.256 350.561 381.502 350.58
C 359.503 350.634 337.503 350.646 315.504 350.635
C 286.17 350.621 256.834 350.686 227.499 350.708
C 214.856 350.717 200.139 353.034 191.16 341.993
C 184.659 333.999 186.13 323.095 186.133 313.505
C 186.138 293.27 185.765 272.963 186.235 252.735
C 196.311 252.881 206.425 252.673 216.506 252.594
C 221.029 252.559 226.695 251.65 231.08 252.813
C 235.338 256.046 229.545 260.185 228.134 263.551
C 225.826 269.056 226.493 275.376 230.314 280.033
C 237.381 288.647 251.706 286.423 256.327 276.553
C 259.443 269.896 256.581 264.093 253.17 258.348
C 252.209 256.729 251.384 254.064 253.481 252.868
C 254.364 252.364 255.531 252.572 256.498 252.533
C 259.331 252.42 262.168 252.452 265.005 252.448
C 274.416 252.432 284.033 251.861 293.423 252.46
C 293.145 243.004 293.449 233.503 293.418 224.041
C 293.409 221.513 292.508 216.112 295.626 215.022
C 296.754 214.628 297.898 215.202 298.78 215.87
C 300.778 217.381 302.491 219.078 304.654 220.376
C 311.848 224.696 322.084 221.417 325.69 213.984
C 329.988 205.124 324.261 194.111 314.399 192.756
C 308.474 191.942 303.58 194.353 299.441 198.446
C 298.921 198.887 298.419 199.399 297.765 199.642
C 293.082 201.381 293.466 194.564 293.45 191.984
C 293.381 181.139 293.943 170.214 293.568 159.386
C 268.4 158.896 243.179 159.272 218.002 159.284
C 210.669 159.288 203.335 159.272 196.001 159.27
C 193.667 159.269 191.332 159.264 188.997 159.242
C 188.18 159.234 187.07 159.522 186.309 159.258
C 186.167 153.644 185.641 147.681 186.421 142.104 Z
M 200.389 138.566
C 198.285 146.416 210.754 149.671 212.559 141.849
C 214.329 134.183 202.457 130.851 200.389 138.566 Z
M 221.868 139.07
C 220.047 146.911 232.861 149.625 234.473 141.783
C 236.127 133.739 223.768 130.892 221.868 139.07 Z
M 243.451 138.58
C 241.257 146.173 253.395 149.903 255.72 142.361
C 258.193 134.339 245.888 130.146 243.451 138.58 Z
M 296.482 314.114
C 296.084 319.364 296.41 324.748 296.415 330.012
C 296.421 335.714 296.127 341.526 296.511 347.21
C 297.914 347.827 300.438 347.269 302.007 347.255
C 306.507 347.215 311.008 347.237 315.508 347.233
C 331.274 347.217 347.184 346.622 362.933 347.281
C 363.172 346.629 362.928 345.431 362.927 344.726
C 362.924 342.985 362.96 341.245 362.954 339.505
C 362.929 333.339 362.944 327.174 362.95 321.008
C 362.964 306.674 362.955 292.341 362.953 278.008
C 362.952 270.649 362.638 263.187 362.999 255.84
C 359.904 255.469 356.624 255.747 353.506 255.747
C 347.505 255.747 341.505 255.781 335.505 255.777
C 322.714 255.767 309.594 254.944 296.842 255.933
C 296.209 265.224 296.698 274.684 296.623 283.998
C 296.606 286.16 296.452 288.366 296.566 290.524
C 296.629 291.724 296.954 292.612 298.273 292.545
C 299.875 291.334 301.127 289.732 302.795 288.605
C 306.732 285.943 311.735 284.94 316.377 286.063
C 328.439 288.982 333.649 304.727 324.242 313.607
C 319.031 318.525 311.017 319.414 304.66 316.38
C 302.703 315.446 301.008 314.098 299.387 312.68
C 298.671 312.054 297.976 311.071 296.999 311.462
C 296.746 312.354 296.643 313.208 296.482 314.114 Z
M 296.889 159.467
C 296.263 162.956 296.816 166.946 296.811 170.496
C 296.797 178.88 297.105 187.301 296.931 195.677
C 296.972 196.143 298.943 194.263 299.254 194
C 300.783 192.711 302.48 191.629 304.32 190.839
C 309.556 188.59 315.521 189.026 320.569 191.555
C 331.744 197.152 334.126 213.724 323.772 221.476
C 318.821 225.184 311.81 226.753 305.865 224.641
C 303.642 223.851 301.639 222.73 299.846 221.201
C 299.178 220.632 297.377 218.695 296.933 219.333
C 296.529 222.85 296.766 226.457 296.76 229.993
C 296.747 237.497 296.941 245.018 296.802 252.519
C 300.092 252.058 303.685 252.43 307.01 252.436
C 313.343 252.448 319.676 252.442 326.01 252.442
C 334.176 252.442 342.343 252.455 350.509 252.44
C 354.61 252.432 358.898 252.065 362.979 252.463
C 362.346 235.357 362.981 218.132 362.931 201.008
C 362.904 191.841 362.925 182.675 362.933 173.508
C 362.937 168.862 362.627 164.089 362.942 159.462
C 354.743 158.725 346.237 159.406 338.007 159.419
C 324.306 159.44 310.586 159.189 296.889 159.467 Z
M 366.318 159.81
C 365.959 181.026 366.21 202.273 366.236 223.493
C 366.248 233.125 366.929 243.054 366.19 252.65
C 371.928 252.234 377.749 252.454 383.508 252.444
C 399.676 252.416 416.016 253.144 432.163 252.467
C 432.799 250.166 432.097 246.91 432.093 244.507
C 432.082 238.341 432.103 232.174 432.107 226.008
C 432.118 211.174 432.019 196.338 432.098 181.505
C 432.138 174.181 431.859 166.78 432.37 159.474
C 431.755 158.927 429.346 159.373 428.511 159.374
C 424.51 159.379 420.508 159.406 416.507 159.414
C 405.034 159.44 393.56 159.443 382.087 159.432
C 378.788 159.429 375.489 159.434 372.19 159.43
C 370.297 159.427 368.126 159.191 366.318 159.81 Z
M 366.329 255.858
C 366.802 277.192 366.258 298.643 366.247 319.992
C 366.244 326.325 366.253 332.658 366.257 338.991
C 366.259 341.533 365.657 345.03 366.391 347.457
C 370.848 346.9 375.522 347.217 380.007 347.221
C 387.674 347.226 395.34 347.181 403.007 347.198
C 409.372 347.212 415.955 347.984 421.783 344.899
C 426.766 342.262 430.425 337.449 431.583 331.901
C 432.399 327.997 432.132 323.861 432.134 319.894
C 432.143 305.931 432.054 291.968 432.081 278.005
C 432.096 270.668 432.618 263.127 432.144 255.814
C 430.518 255.233 427.76 255.782 426.008 255.781
C 421.507 255.777 417.005 255.775 412.503 255.772
C 397.119 255.76 381.704 255.53 366.329 255.858 Z"
opacity="1" fill="rgb(5,19,62)" fill-rule="evenodd" />
<path d="
M 227.798 417.201
C 232.303 416.611 236.967 417.688 241.48 416.918
C 242.105 417.443 242.458 418.55 242.915 419.266
C 244.311 421.458 245.612 423.715 246.945 425.946
C 251.069 432.844 255.878 439.379 259.704 446.439
C 260.333 446.068 260.741 444.783 261.098 444.164
C 262.169 442.302 263.28 440.452 264.431 438.637
C 268.951 431.512 273.194 424.233 277.575 417.034
C 280.543 416.256 284.659 417.088 287.757 417.058
C 288.787 417.048 290.865 416.615 291.756 417.123
C 291.21 428.696 291.766 440.414 291.723 452.005
C 291.69 460.986 290.93 470.377 291.795 479.315
C 289.051 479.133 286.247 479.261 283.496 479.249
C 282.352 479.244 280.768 479.575 279.714 479.164
C 279.602 469.611 279.551 460.053 279.558 450.498
C 279.56 446.835 279.506 443.167 279.615 439.506
C 279.641 438.636 280.096 435.657 279.052 436.504
C 274.684 444.172 269.258 451.36 264.521 458.817
C 263.321 460.708 262.08 462.568 260.953 464.505
C 260.619 465.08 260.075 466.475 259.429 466.704
C 257.763 465.795 256.482 462.361 255.485 460.762
C 252.271 455.607 248.818 450.613 245.54 445.5
C 244.262 443.506 242.939 441.557 241.731 439.519
C 241.235 438.684 240.717 437.811 240.184 437.004
C 240.025 436.764 239.804 436.074 239.656 436.32
C 239.389 436.765 239.748 438.882 239.75 439.572
C 239.759 442.38 239.674 445.188 239.669 447.996
C 239.651 458.352 239.055 468.889 239.672 479.223
C 235.825 479.416 231.599 479.572 227.767 479.264
C 228.147 472.231 227.728 465.054 227.69 458.008
C 227.617 444.414 227.591 430.794 227.798 417.201 Z"
opacity="1" fill="rgb(5,19,63)" fill-rule="evenodd" />
<path d="
M 304.848 469.427
C 307.499 466.891 309.845 464.106 312.416 461.5
C 314.475 462.872 316.186 464.705 318.322 466.023
C 322.298 468.478 327.955 470.026 332.634 469.477
C 337.771 468.874 343.909 464.594 340.074 458.901
C 337.833 455.576 332.418 454.926 328.85 453.949
C 320.822 451.75 311.015 449.59 308.14 440.557
C 307.605 438.877 307.364 437.11 307.325 435.349
C 307.279 433.217 307.486 431.109 308.151 429.074
C 312.577 415.533 328.424 414.039 340.254 417.839
C 343.374 418.841 346.315 420.368 349.052 422.159
C 349.814 422.658 351.499 423.54 351.95 424.295
C 350.423 426.422 348.832 428.479 347.441 430.703
C 347.175 431.129 345.774 433.818 345.703 433.76
C 340.757 429.474 333.624 426.462 326.994 426.925
C 323.108 427.197 319.249 429.831 319.69 434.105
C 320.261 439.636 327.59 440.93 331.92 442.087
C 340.684 444.428 350.974 447.675 353.26 457.686
C 353.659 459.435 353.722 461.289 353.565 463.071
C 352.579 474.283 342.523 479.618 332.287 480.224
C 324.831 480.665 317.06 478.652 310.732 474.707
C 308.47 473.297 306.591 471.472 304.471 469.898
C 304.597 469.741 304.722 469.584 304.848 469.427 Z"
opacity="1" fill="rgb(4,17,60)" fill-rule="evenodd" />
<path d="
M 379.512 222.618
C 380.395 211.694 379.023 200.631 379.646 189.707
C 392.6 188.978 405.721 189.686 418.69 189.623
C 419.065 193.007 418.711 196.587 418.682 199.991
C 418.63 206.324 418.657 212.658 418.651 218.99
C 418.648 221.328 418.67 223.66 418.708 225.998
C 418.725 227.099 418.928 228.457 418.183 229.372
C 410.929 230.053 403.307 229.261 396.007 229.241
C 390.774 229.227 384.952 229.991 379.796 229.1
C 379.525 226.952 379.513 224.78 379.512 222.618 Z
M 383.153 196.612
C 383.492 205.217 383.852 214.48 382.939 223.054
C 384.132 222.342 385.146 221.017 386.13 220.041
C 388.415 217.776 390.558 215.369 392.846 213.11
C 393.976 211.994 396.176 210.862 396.879 209.496
C 394.602 206.153 390.654 203.134 387.782 200.25
C 386.544 199.007 385.396 197.682 384.152 196.449
C 383.789 196.09 383.459 195.12 383.035 195.403
C 382.698 195.628 383.114 196.209 383.153 196.612 Z
M 385.369 225.718
C 385.38 225.822 385.391 225.925 385.403 226.028
C 391.869 226.533 398.652 225.786 405.17 225.913
C 406.96 225.948 408.748 226.035 410.537 226.086
C 411.184 226.104 412.382 226.395 412.955 226.068
C 408.46 221.35 404.074 215.863 398.987 211.771
C 397.785 212.374 396.576 214.124 395.617 215.134
C 393.467 217.395 391.289 219.626 389.128 221.876
C 387.907 223.128 386.819 224.736 385.369 225.718 Z
M 385.786 193.381
C 389.734 198.123 394.576 202.804 399.131 206.976
C 401.654 203.31 405.574 199.983 408.775 196.871
C 409.654 196.016 412.34 194.145 412.565 193.004
C 406.047 192.906 399.514 192.984 392.998 193.149
C 391.2 193.195 387.269 192.497 385.786 193.381 Z
M 401.455 209.605
C 406.59 213.613 410.76 219.082 415.54 223.522
C 415.867 223.085 415.404 222.122 415.367 221.623
C 415.241 219.936 415.308 218.2 415.311 216.508
C 415.321 211.839 415.403 207.172 415.38 202.503
C 415.368 200.217 415.594 197.69 415.152 195.45
C 414.502 196.011 413.901 196.62 413.254 197.183
C 409.227 201.04 405.65 205.469 401.478 209.152
C 401.47 209.303 401.462 209.454 401.455 209.605 Z"
opacity="1" fill="rgb(6,11,48)" fill-rule="evenodd" />
<path d="
M 392.261 417.708
C 397.94 417.407 403.667 417.671 409.356 417.595
C 416.086 417.505 422.755 417.083 428.892 420.386
C 440.745 426.762 441.776 445.557 430.695 453.236
C 423.8 458.015 416.031 457.844 408.003 457.817
C 405.115 457.807 401.443 457.236 398.654 458.021
C 398.521 463.174 398.603 468.342 398.61 473.497
C 398.612 474.881 398.054 478.045 398.677 479.191
C 396.548 478.956 394.388 479.154 392.257 479.132
C 392.625 469.281 392.173 459.361 392.229 449.501
C 392.288 438.956 392.821 428.235 392.261 417.708 Z
M 398.713 423.69
C 398.542 433.108 398.202 442.671 398.685 452.084
C 402.373 452.249 406.173 451.912 409.88 451.917
C 414.453 451.922 419.401 452.212 423.638 450.168
C 425.828 449.111 427.929 447.759 429.349 445.744
C 433.591 439.73 432.543 429.945 426.008 425.965
C 421.258 423.072 415.753 423.573 410.413 423.589
C 406.527 423.601 402.585 423.318 398.713 423.69 Z"
opacity="1" fill="rgb(39,76,142)" fill-rule="evenodd" />
<path d="
M 451.753 417.774
C 458.618 417.653 465.49 417.755 472.357 417.696
C 478.318 417.645 484.326 417.33 489.947 419.689
C 500.896 424.284 504.325 439.347 496.195 448.159
C 494.07 450.463 491.067 452.094 488.129 453.117
C 486.778 453.587 485.031 453.698 483.801 454.398
C 488.382 460.806 493.273 467.005 498.003 473.307
C 499.148 474.833 500.381 476.309 501.49 477.858
C 501.641 478.07 502.518 478.965 502.372 479.14
C 499.892 479.251 496.838 479.448 494.406 478.933
C 488.495 471.229 481.826 463.489 476.852 455.15
C 474.68 454.887 472.34 455.197 470.145 455.183
C 466.258 455.159 462.274 454.956 458.402 455.339
C 458.461 460.886 458.218 466.451 458.17 472
C 458.152 474.029 457.594 477.252 458.295 479.146
C 456.425 478.753 453.69 478.95 451.769 479.191
C 451.469 477.027 451.722 474.686 451.724 472.501
C 451.727 468.168 451.757 463.836 451.762 459.503
C 451.781 445.595 451.859 431.679 451.753 417.774 Z
M 458.277 423.798
C 457.874 426.465 458.125 429.307 458.143 432
C 458.182 437.723 458.435 443.494 458.196 449.21
C 464.093 449.234 470.003 449.263 475.898 449.1
C 480.144 448.983 484.462 448.846 488.2 446.582
C 496.482 441.567 495.344 428.486 486.447 424.855
C 483 423.448 479.105 423.708 475.462 423.71
C 469.733 423.713 464.003 423.727 458.277 423.798 Z"
opacity="1" fill="rgb(37,75,144)" fill-rule="evenodd" />
<path d="
M 512.505 446.615
C 512.956 437.801 517.046 429.102 523.971 423.546
C 536.044 413.859 555.309 414.53 566.01 426.042
C 568.599 428.827 570.754 432.027 572.187 435.558
C 574.136 440.36 574.958 445.385 574.712 450.557
C 574.516 454.686 573.469 458.936 571.689 462.671
C 562.584 481.778 536.274 485.768 521.444 470.958
C 518.526 468.044 516.378 464.705 514.829 460.896
C 512.992 456.382 512.256 451.473 512.505 446.615 Z
M 519.419 444.596
C 518.851 448.681 519.137 453.03 520.407 456.965
C 521.778 461.217 524.256 465.389 527.716 468.284
C 537.564 476.524 553.232 475.946 561.859 466.095
C 565.15 462.337 567.133 457.247 567.752 452.333
C 568.282 448.124 568.024 443.74 566.624 439.71
C 565.386 436.145 563.569 432.796 560.925 430.078
C 551.481 420.365 535.668 420.57 526.183 430.139
C 522.43 433.925 520.144 439.375 519.419 444.596 Z"
opacity="1" fill="rgb(39,77,140)" fill-rule="evenodd" />

</svg>